:SAMPLES-PER-SECOND 30
:FULLY-SPECIFIED
:DEGREES
128
root  -64.2819 40.7481 -2.7965 -173.859 -80.2905 166.421
RightUpLeg  -23.826 -7.25532 -2.49645
RightLeg  24.5708 0.473279 0.0153664
RightFoot  4.19176 -0.754179 5.7233
RightToes  0.00048216 0.542163 -0.142577
Spine  17.0947 0.639061 -4.40768
Spine1  2.22301 0.745936 -2.70417
HEad  -19.1991 8.59036 -0.986826
LeftShoulder1  8.74256 -11.9095 -49.5122
LeftArm  -23.4344 11.9609 -23.3534
LeftForeArm  30.8471 -35.6046 -6.20448
LeftHand  -0.25398 0.0180481 5.50724
RightShoulder  5.92228 9.52367 39.3545
RightArm  2.37413 -20.052 31.894
RightForeArm  -4.92519 15.186 7.28346
RightHand  -1.9733 5.25094 -21.6538
LeftUpLeg  -3.0633 8.59586 -0.295412
LeftLeg  14.0501 13.9283 -2.53866
LeftFoot  -12.8749 -0.0250378 -7.6072
LeftToes  1.06246e-005 4.65856e-005 -8.18505e-006
129
root  -64.7241 40.7511 -2.86506 -171.685 -80.9538 164.074
RightUpLeg  -23.1289 -8.09326 -2.38919
RightLeg  20.7776 2.20477 0.720332
RightFoot  6.98129 -0.967845 6.29588
RightToes  0.00048216 0.542163 -0.142577
Spine  17.4396 0.429714 -5.43126
Spine1  1.23558 0.333621 -2.49335
HEad  -19.5154 8.69086 -0.319219
LeftShoulder1  8.56404 -11.9194 -48.4678
LeftArm  -24.0627 12.1189 -23.7577
LeftForeArm  33.5284 -41.628 -7.75375
LeftHand  -0.25398 0.0180481 5.50724
RightShoulder  6.04953 9.63575 39.9084
RightArm  0.907385 -22.0834 30.7721
RightForeArm  -3.86977 14.56 7.29206
RightHand  -1.86441 4.85594 -21.2518
LeftUpLeg  -2.05414 8.63923 -0.237555
LeftLeg  13.7656 13.0614 -3.08133
LeftFoot  -13.0193 -0.0408247 -8.12954
LeftToes  1.06246e-005 4.65856e-005 -8.18505e-006
130
root  -65.195 40.7329 -2.92209 -168.508 -81.6987 160.79
RightUpLeg  -22.2543 -9.15466 -2.44491
RightLeg  18.2609 3.07687 0.933336
RightFoot  9.57465 -1.07804 6.19719
RightToes  0.00048216 0.542163 -0.142577
Spine  17.102 0.21817 -6.15025
Spine1  1.42248 -0.0461637 -2.10562
HEad  -19.9 8.52477 -0.0756003
LeftShoulder1  8.3935 -11.7321 -48.0816
LeftArm  -24.7119 11.7245 -24.0067
LeftForeArm  36.2966 -46.7481 -9.29116
LeftHand  -0.25398 0.0180481 5.50724
RightShoulder  5.97436 9.49793 39.8225
RightArm  -1.26565 -23.4735 30.4548
RightForeArm  -2.56505 14.1482 7.0924
RightHand  -1.73789 4.45469 -20.6312
LeftUpLeg  -1.20113 8.73647 -0.332955
LeftLeg  13.5559 12.0262 -3.59145
LeftFoot  -12.4181 -0.000791274 -7.91507
LeftToes  1.06246e-005 4.65856e-005 -8.18505e-006
131
root  -65.7079 40.7234 -2.97381 -164 -82.4459 156.267
RightUpLeg  -21.024 -10.032 -2.72538
RightLeg  16.4297 2.48651 0.634003
RightFoot  11.354 -1.00361 5.38961
RightToes  0.00048216 0.542163 -0.142577
Spine  16.4003 0.0242616 -6.22481
Spine1  1.7102 -0.210376 -2.27281
HEad  -19.8073 8.02786 0.231203
LeftShoulder1  8.17049 -11.5038 -47.5075
LeftArm  -24.8029 11.4655 -24.2545
LeftForeArm  39.5724 -50.0638 -10.3546
LeftHand  -0.25398 0.0180481 5.50724
RightShoulder  5.85367 9.2543 39.7573
RightArm  -3.99502 -25.2064 30.486
RightForeArm  -2.52747 14.4197 6.66024
RightHand  -1.65873 4.32975 -19.9663
LeftUpLeg  -0.448257 8.50571 -0.693089
LeftLeg  13.2375 11.439 -3.96617
LeftFoot  -11.233 0.0718476 -6.34669
LeftToes  1.06246e-005 4.65856e-005 -8.18505e-006
132
root  -66.2523 40.7317 -3.04482 -157.339 -83.3091 149.668
RightUpLeg  -19.4427 -11.1785 -3.1682
RightLeg  14.9639 1.0993 0.241846
RightFoot  13.1205 -0.815406 4.18475
RightToes  0.00048216 0.542163 -0.142577
Spine  15.5431 -0.14588 -6.29102
Spine1  1.93487 -0.413382 -2.13736
HEad  -19.6358 7.49363 0.459686
LeftShoulder1  7.90925 -11.2071 -46.9027
LeftArm  -23.9422 11.5117 -23.9714
LeftForeArm  42.463 -51.1002 -10.5879
LeftHand  -0.25398 0.0180481 5.50724
RightShoulder  5.62716 8.8428 39.4655
RightArm  -7.04803 -26.7807 30.6361
RightForeArm  -3.1405 15.0201 6.16414
RightHand  -1.61964 4.37404 -19.4274
LeftUpLeg  0.159127 8.08749 -1.30668
LeftLeg  12.9655 11.0188 -4.05941
LeftFoot  -10.0161 0.104151 -3.83571
LeftToes  1.06246e-005 4.65856e-005 -8.18505e-006
133
root  -66.8189 40.7468 -3.13314 -150.452 -84.1535 142.923
RightUpLeg  -17.5085 -12.4726 -3.59007
RightLeg  13.6964 0.1575 0.274731
RightFoot  14.6438 -0.514141 2.6678
RightToes  0.00048216 0.542163 -0.142577
Spine  14.6719 -0.371303 -6.26119
Spine1  1.97399 -0.723093 -1.71745
HEad  -19.4183 7.12332 0.541146
LeftShoulder1  7.51391 -10.8163 -45.7362
LeftArm  -22.3151 12.1349 -23.2055
LeftForeArm  43.2394 -49.7247 -9.9652
LeftHand  -0.25398 0.0180481 5.50724
RightShoulder  5.30362 8.32384 38.765
RightArm  -9.92849 -27.5391 30.503
RightForeArm  -3.51823 15.2336 5.79869
RightHand  -1.61694 4.56357 -19.0468
LeftUpLeg  0.592243 7.91714 -1.82173
LeftLeg  13.0506 10.4569 -3.80039
LeftFoot  -9.19169 0.0809074 -1.32471
LeftToes  1.06246e-005 4.65856e-005 -8.18505e-006
134
root  -67.4077 40.7748 -3.22614 -147.887 -84.6359 140.591
RightUpLeg  -15.1555 -12.4712 -3.92433
RightLeg  12.2041 -0.0550576 0.795524
RightFoot  14.1595 -0.0850134 0.790513
RightToes  0.00048216 0.542163 -0.142577
Spine  13.6049 -0.576153 -5.86555
Spine1  2.065 -0.983859 -1.19947
HEad  -19.1106 7.11839 0.211815
LeftShoulder1  6.90399 -10.2399 -43.6986
LeftArm  -20.5294 13.2661 -22.1369
LeftForeArm  41.3248 -46.132 -8.74114
LeftHand  -0.25398 0.0180481 5.50724
RightShoulder  4.8819 7.72393 37.4435
RightArm  -12.3138 -27.0566 29.6605
RightForeArm  -4.00942 14.7163 5.61756
RightHand  -1.69829 5.16076 -18.8947
LeftUpLeg  1.0746 8.05972 -1.96257
LeftLeg  13.2271 10.0398 -3.31299
LeftFoot  -8.94915 0.0464862 0.380503
LeftToes  1.06246e-005 4.65856e-005 -8.18505e-006
135
root  -68.0212 40.8417 -3.32974 -151.619 -84.6669 144.667
RightUpLeg  -12.5342 -10.2066 -4.13741
RightLeg  9.95898 -0.692193 1.49066
RightFoot  11.462 0.310171 -1.15114
RightToes  0.00048216 0.542163 -0.142577
Spine  12.1593 -0.65948 -5.16985
Spine1  2.47252 -1.1348 -0.379446
HEad  -18.9472 7.56557 -0.679996
LeftShoulder1  6.15746 -9.40581 -41.3369
LeftArm  -18.9607 14.4617 -20.3724
LeftForeArm  38.1542 -40.8644 -7.23513
LeftHand  -0.25398 0.0180481 5.50724
RightShoulder  4.30277 6.93393 35.2581
RightArm  -14.4441 -25.3771 28.0024
RightForeArm  -5.24182 13.8973 5.49155
RightHand  -1.84044 5.98826 -19.004
LeftUpLeg  1.88898 8.09896 -1.73304
LeftLeg  12.8092 10.1471 -2.86948
LeftFoot  -9.1752 0.0353765 1.04281
LeftToes  1.06246e-005 4.65856e-005 -8.18505e-006
136
root  -68.662 40.9561 -3.44914 -159.735 -84.4348 153.335
RightUpLeg  -10.2053 -7.35276 -3.86817
RightLeg  7.04835 -1.93478 2.14694
RightFoot  9.03408 0.509328 -2.47245
RightToes  0.00048216 0.542163 -0.142577
Spine  10.7704 -0.74122 -3.43838
Spine1  1.97019 -0.982538 -0.624512
HEad  -18.2979 8.01022 -1.06334
LeftShoulder1  5.36056 -8.64097 -37.963
LeftArm  -17.3266 16.1531 -18.0879
LeftForeArm  35.1346 -34.5926 -5.6921
LeftHand  -0.25398 0.0180481 5.50724
RightShoulder  3.80364 6.24154 33.0772
RightArm  -16.4013 -23.944 25.2092
RightForeArm  -6.87887 13.6161 5.26477
RightHand  -1.90773 6.3543 -19.0911
LeftUpLeg  2.90075 7.81748 -1.13032
LeftLeg  11.7047 10.7548 -2.63922
LeftFoot  -9.44541 0.0396894 1.03355
LeftToes  1.06246e-005 4.65856e-005 -8.18505e-006
137
root  -69.3229 41.0899 -3.56741 -170.882 -83.9104 165.384
RightUpLeg  -8.71989 -5.88453 -3.01088
RightLeg  4.37695 -2.67915 2.98054
RightFoot  8.60877 0.545408 -2.76239
RightToes  0.00048216 0.542163 -0.142577
Spine  9.02872 -0.742858 -0.72096
Spine1  1.50864 -0.603389 -1.45857
HEad  -17.8101 8.46515 -1.32023
LeftShoulder1  4.6076 -7.80101 -34.6733
LeftArm  -15.7909 17.3219 -15.1314
LeftForeArm  31.2195 -28.0491 -4.35386
LeftHand  -0.25398 0.0180481 5.50724
RightShoulder  3.2892 5.53159 30.4362
RightArm  -17.6783 -22.3452 21.6224
RightForeArm  -7.48297 13.8377 5.01629
RightHand  -1.84637 6.1117 -18.8684
LeftUpLeg  3.61881 7.69473 -0.0960397
LeftLeg  10.6211 11.5054 -2.47887
LeftFoot  -9.59459 0.0468551 0.717509
LeftToes  1.06246e-005 4.65856e-005 -8.18505e-006
138
root  -69.9746 41.1822 -3.67634 178.686 -82.7976 177.004
RightUpLeg  -8.19383 -5.66524 -1.95423
RightLeg  2.85892 -2.25435 4.00725
RightFoot  8.90487 0.481492 -2.35086
RightToes  0.00048216 0.542163 -0.142577
Spine  7.22734 -0.50765 2.79779
Spine1  0.829212 0.107403 -3.05543
HEad  -17.3212 8.8247 -1.40198
LeftShoulder1  3.89498 -6.95997 -31.141
LeftArm  -14.8626 18.136 -12.2274
LeftForeArm  25.59 -21.884 -3.44206
LeftHand  -0.25398 0.0180481 5.50724
RightShoulder  2.90057 5.05596 27.8859
RightArm  -17.4701 -20.6161 16.9365
RightForeArm  -7.42246 13.8869 4.94266
RightHand  -1.78276 5.89078 -18.584
LeftUpLeg  3.75774 8.40595 1.11915
LeftLeg  10.3336 11.8724 -2.05528
LeftFoot  -10.1811 0.0601348 0.0398233
LeftToes  1.06246e-005 4.65856e-005 -8.18505e-006
